<svg width="200" height="200" viewBox="0 0 200 200" fill="none" xmlns="http://www.w3.org/2000/svg">
<path d="M0 35C0 15.67 15.67 0 35 0H165C184.33 0 200 15.67 200 35V165C200 184.33 184.33 200 165 200H35C15.67 200 0 184.33 0 165V35Z" fill="#EEEEEE"/>
<path d="M63.6692 79.6028C63.6692 75.7482 64.8959 72.4994 67.3495 69.8562C69.9146 67.103 73.2603 65.7264 77.3867 65.7264C81.6247 65.7264 84.9705 67.103 87.424 69.8562C89.9891 72.4994 91.2716 75.7482 91.2716 79.6028C91.2716 83.4573 89.9891 86.7062 87.424 89.3493C84.9705 91.9924 81.6247 93.314 77.3867 93.314C73.2603 93.314 69.9146 91.9924 67.3495 89.3493C64.8959 86.7062 63.6692 83.4573 63.6692 79.6028ZM63 133.456C63 129.602 64.2268 126.353 66.6803 123.71C69.1339 121.067 72.4796 119.745 76.7176 119.745C80.9556 119.745 84.3013 121.067 86.7549 123.71C89.3199 126.353 90.6025 129.602 90.6025 133.456C90.6025 137.311 89.3199 140.615 86.7549 143.368C84.3013 146.011 80.9556 147.333 76.7176 147.333C72.4796 147.333 69.1339 146.011 66.6803 143.368C64.2268 140.615 63 137.311 63 133.456Z" fill="#663399"/>
<path d="M108.561 166C105.996 166 103.71 165.284 101.702 163.852C99.8064 162.531 98.3565 160.989 97.3528 159.227C103.152 150.857 107.502 142.047 110.401 132.796C113.301 123.545 114.751 112.697 114.751 100.252C114.751 87.8075 113.245 76.9046 110.234 67.5435C107.223 58.1824 102.929 49.5372 97.3528 41.6078C98.3565 39.9559 99.8064 38.4691 101.702 37.1475C103.71 35.7158 105.996 35 108.561 35C112.13 35 115.197 36.1013 117.762 38.3039C120.327 40.5065 122.557 43.2598 124.453 46.5637C127.911 52.5107 130.866 60.0546 133.32 69.1955C135.773 78.2261 137 88.5784 137 100.252C137 112.036 135.829 122.443 133.487 131.474C131.256 140.505 128.245 148.104 124.453 154.271C122.557 157.575 120.327 160.328 117.762 162.531C115.197 164.844 112.13 166 108.561 166Z" fill="#663399"/>
</svg>
